<!-- icon666.com - MILLIONS OF FREE VECTOR ICONS --><svg id="Layer_1" viewBox="0 0 512 512" xmlns="http://www.w3.org/2000/svg" xmlns:xlink="http://www.w3.org/1999/xlink" data-name="Layer 1"><linearGradient id="GradientFill_1" gradientUnits="userSpaceOnUse" x1="256" x2="256" y1="512"><stop offset="0" stop-color="#5cc4bb"></stop><stop offset=".097" stop-color="#50c1c0"></stop><stop offset=".501" stop-color="#25b4d2"></stop><stop offset=".815" stop-color="#0aacde"></stop><stop offset="1" stop-color="#00a9e2"></stop></linearGradient><path d="m440.232 0h-368.461a71.854 71.854 0 0 0 -71.771 71.771v368.458a71.857 71.857 0 0 0 71.77 71.771h368.462a71.856 71.856 0 0 0 71.768-71.77v-368.46a71.853 71.853 0 0 0 -71.768-71.77zm-27.54 241.466a16 16 0 0 1 0 29.067l-300 138.117a16 16 0 0 1 -21.05-21.59l64.428-131.06-64.43-131.057a16 16 0 0 1 21.05-21.592z" fill="url(#GradientFill_1)" fill-rule="evenodd"></path></svg>